# xmcd
#
# Track frame offsets: 
#        150
#        19307
#        36353
#        49910
#        68438
#        82587
#        109005
#        130347
#        140060
#        160805
#
# Disc length: 2680 seconds
#
# Revision: 0
# Processed by: cddbd v1.5.2PL0 Copyright (c) Steve Scherf et al.
# Submitted via: ExactAudioCopy v1.2
#
DISCID=800a760a
DTITLE=Öbacka Blues Band - Öbacka Blues Band
DYEAR=2018
DGENRE=Blues
TTITLE0=Mellow Down Easy
TTITLE1=Help Me
TTITLE2=Born in Chicago
TTITLE3=Come on in This House
TTITLE4=Aint No Need to Go No Further
TTITLE5=Just to Be with You
TTITLE6=Looking for Somebody
TTITLE7=All This Blues
TTITLE8=Blues with a Feeling
TTITLE9=Lovin Cup
EXTD=
EXTT0=
EXTT1=
EXTT2=
EXTT3=
EXTT4=
EXTT5=
EXTT6=
EXTT7=
EXTT8=
EXTT9=
PLAYORDER=
